<?xml version="1.0" standalone="no"?>
<!DOCTYPE svg PUBLIC "-//W3C//DTD SVG 20010904//EN"
 "http://www.w3.org/TR/2001/REC-SVG-20010904/DTD/svg10.dtd">
<svg version="1.0" xmlns="http://www.w3.org/2000/svg"
 width="256.000000pt" height="256.000000pt" viewBox="0 0 256.000000 256.000000"
 preserveAspectRatio="xMidYMid meet">

<g transform="translate(0.000000,256.000000) scale(0.100000,-0.100000)"
fill="#0B090A" stroke="none">
<path d="M619 2431 l-24 -19 0 -1132 0 -1132 24 -19 c22 -18 48 -19 661 -19
613 0 639 1 661 19 l24 19 0 1132 0 1132 -24 19 c-22 18 -48 19 -661 19 -613
0 -639 -1 -661 -19z m1313 -18 c17 -15 18 -64 18 -1131 0 -1024 -1 -1117 -17
-1134 -15 -17 -49 -18 -651 -18 -577 0 -637 2 -654 17 -17 15 -18 64 -18 1131
0 1024 1 1117 17 1134 15 17 49 18 651 18 577 0 637 -2 654 -17z"/>
<path d="M657 2403 c-4 -3 -7 -465 -7 -1025 l0 -1018 630 0 630 0 -2 1023 -3
1022 -621 3 c-341 1 -624 -1 -627 -5z m1234 -17 c2 -2 3 -47 1 -100 -4 -108
-1 -105 -92 -109 -44 -2 -45 -1 -48 31 -3 26 -7 32 -28 32 -15 0 -24 -6 -24
-15 0 -21 -16 -19 -33 6 -13 17 -19 19 -36 9 -23 -12 -21 -21 12 -57 l20 -23
-33 0 c-18 0 -56 14 -87 31 -43 25 -57 29 -68 19 -8 -7 -15 -18 -15 -25 0 -15
-108 -26 -126 -13 -6 5 -24 4 -39 -2 -15 -6 -62 -13 -104 -16 -69 -5 -74 -4
-57 10 10 8 24 17 30 19 14 5 -11 37 -28 37 -7 0 -39 -16 -71 -36 -68 -40
-132 -55 -190 -45 l-40 7 43 14 c42 13 49 23 34 48 -7 10 -15 10 -36 2 -24 -9
-27 -8 -23 5 4 9 -2 19 -15 26 -19 10 -27 6 -75 -45 -39 -43 -58 -57 -75 -54
-22 3 -23 7 -25 117 -1 63 0 119 3 123 5 8 1217 12 1225 4z m-1076 -186 c-26
-28 -15 -33 35 -15 58 21 64 10 8 -14 -89 -38 -63 -56 69 -49 69 4 85 9 141
42 34 21 65 36 69 33 3 -4 -11 -16 -31 -28 -36 -21 -52 -57 -20 -45 9 3 53 9
100 12 82 7 84 6 93 -17 10 -28 -4 -37 -61 -38 -37 -1 -51 -15 -25 -24 6 -2 9
-8 5 -12 -4 -4 -19 2 -35 13 -24 17 -45 20 -150 21 -75 1 -123 -3 -123 -9 0
-13 54 -40 80 -40 11 0 20 -5 20 -10 0 -14 -44 -3 -102 26 -26 13 -67 24 -90
25 -24 0 -63 4 -88 7 -36 6 -45 11 -45 27 0 15 8 21 31 23 21 2 46 18 79 52
27 27 51 47 54 45 2 -3 -4 -14 -14 -25z m860 0 c24 -27 45 -25 45 3 1 18 3 16
15 -12 l15 -34 70 5 70 5 0 -33 c0 -19 -1 -37 -2 -41 -2 -5 -43 -9 -91 -9 -82
-1 -90 -3 -118 -30 -27 -26 -43 -22 -17 4 9 9 9 15 1 23 -8 8 -25 1 -64 -25
-60 -40 -78 -40 -30 -1 52 45 43 49 -100 42 l-130 -6 3 27 c3 27 4 27 86 30
75 3 98 11 72 27 -5 3 -10 11 -10 16 0 5 20 -2 43 -16 34 -19 57 -25 105 -25
34 0 62 2 62 5 0 3 -15 19 -32 35 -18 16 -28 30 -22 30 6 0 19 -9 29 -20z
m-115 -130 c0 -6 -12 -15 -26 -20 -27 -11 -28 -27 -2 -43 11 -8 24 -3 50 16
38 29 49 33 46 16 -2 -6 5 -16 15 -22 15 -10 22 -7 42 18 24 29 26 30 111 28
47 -1 88 -4 90 -5 2 -2 5 -381 6 -841 l3 -837 -617 0 -618 0 0 841 0 842 92
-8 c56 -4 106 -14 128 -25 19 -10 51 -22 71 -28 32 -8 40 -7 58 12 l22 21 -43
12 c-41 10 -38 11 52 12 80 0 99 -3 120 -19 14 -11 30 -20 37 -20 15 0 35 35
26 44 -3 3 11 6 31 6 l38 0 -3 -87 c-1 -49 1 -96 5 -105 4 -9 3 -41 -3 -70 -6
-29 -15 -97 -21 -152 -6 -54 -13 -102 -16 -107 -3 -5 -60 -9 -126 -9 -99 0
-125 -3 -140 -17 -27 -24 -22 -64 17 -129 20 -33 35 -71 35 -89 0 -20 8 -39
21 -51 37 -32 69 -92 69 -126 0 -29 -7 -37 -58 -70 -31 -20 -77 -45 -102 -56
-55 -24 -83 -53 -78 -84 2 -18 20 -30 93 -62 50 -21 107 -41 128 -43 23 -4 42
-13 48 -24 13 -25 32 -24 24 0 -5 16 -2 18 15 14 25 -7 25 -19 -1 -77 -18 -42
-19 -54 -10 -113 6 -37 15 -69 20 -72 5 -4 13 -19 16 -34 8 -30 25 -37 26 -9
0 13 3 12 11 -5 13 -26 28 -30 28 -8 0 8 5 15 10 15 6 0 10 -7 10 -16 0 -23
20 -6 21 19 1 17 2 18 6 5 7 -27 23 -22 23 7 0 15 5 24 13 22 9 -1 11 16 9 68
-3 65 -16 103 -54 164 -14 23 -12 27 24 36 24 6 26 5 22 -17 -5 -23 -5 -23 10
-3 8 11 20 25 26 32 5 7 42 22 82 34 50 15 82 31 105 54 59 59 42 86 -83 129
-78 26 -130 51 -139 66 -7 12 32 91 54 107 13 9 14 16 3 45 -6 19 -12 42 -12
52 0 10 -9 29 -20 43 -12 16 -20 41 -20 65 l0 39 34 -7 c27 -4 38 -2 50 13 8
10 31 38 50 61 38 46 46 79 22 88 -18 7 -65 -17 -90 -45 -11 -12 -30 -21 -42
-21 l-24 0 5 162 c3 88 7 163 9 166 3 2 3 17 0 32 -4 17 2 42 15 68 12 23 21
57 21 77 l0 35 65 0 c38 0 65 -4 65 -10z m-209 -35 c-19 -40 -31 -45 -31 -12
0 25 17 47 36 47 8 0 6 -11 -5 -35z m61 -6 c-1 -13 -7 -26 -13 -27 -5 -2 -23
-18 -39 -35 -16 -17 -32 -28 -36 -24 -4 4 0 15 9 25 10 10 17 23 17 29 0 18
42 64 54 60 6 -2 10 -15 8 -28z m-39 -101 c-3 -16 -11 -28 -17 -28 -24 0 -26
14 -4 37 26 27 28 26 21 -9z m-23 -68 c13 -8 15 -47 15 -253 l0 -244 -27 29
c-18 19 -36 28 -57 28 -27 0 -31 3 -27 23 20 91 28 142 36 226 12 112 29 201
38 201 4 0 14 -5 22 -10z m179 -292 c-15 -28 -82 -109 -86 -104 -2 2 3 16 12
32 8 16 15 37 15 46 0 18 36 48 58 48 10 0 10 -4 1 -22z m-79 -46 c0 -4 -7
-18 -16 -31 -13 -18 -18 -20 -25 -10 -7 12 -11 11 -19 -1 -8 -12 -10 -9 -10
12 0 21 5 27 28 31 15 2 30 5 35 6 4 0 7 -2 7 -7z m-200 -15 c0 -8 -9 -22 -19
-31 -15 -14 -20 -14 -25 -4 -4 10 -7 10 -12 1 -3 -7 -12 -9 -20 -6 -8 3 -14 0
-14 -7 0 -10 -3 -10 -14 -1 -11 9 -15 9 -19 -1 -4 -10 -7 -11 -18 0 -16 15
-29 16 -29 2 0 -6 12 -15 26 -20 22 -9 25 -14 19 -38 -9 -38 -33 -72 -50 -72
-8 0 -27 23 -42 51 -16 29 -34 62 -41 75 -10 18 -10 29 -2 44 10 18 21 20 135
20 98 0 125 -3 125 -13z m-20 -87 c-12 -23 -20 -24 -55 -8 -38 17 -30 28 20
28 43 0 45 -1 35 -20z m90 -36 c12 -12 12 -14 -3 -14 -9 0 -17 -4 -17 -10 0
-5 7 -10 15 -10 8 0 15 -5 15 -11 0 -6 -9 -8 -20 -4 -11 3 -20 2 -20 -3 0 -16
44 -23 52 -8 10 17 58 8 58 -11 0 -8 -4 -11 -10 -8 -5 3 -10 1 -10 -4 0 -6 4
-11 9 -11 5 0 14 -13 21 -29 10 -25 9 -33 -7 -55 -17 -23 -33 -33 -33 -21 0 4
7 20 16 36 16 32 13 59 -7 59 -6 0 -9 -7 -6 -15 4 -8 2 -17 -4 -20 -5 -4 -7
-10 -4 -15 7 -12 -19 -30 -32 -22 -8 5 -9 19 -4 45 8 32 7 36 -10 34 -22 -4
-38 -17 -20 -17 7 0 11 -10 9 -22 -3 -24 -32 -32 -34 -10 -3 26 -6 26 -16 2
l-10 -25 -10 25 c-5 14 -7 40 -4 58 5 36 2 39 -21 17 -11 -11 -13 -26 -9 -50
8 -39 -9 -57 -18 -20 -4 14 -11 25 -16 25 -6 0 -8 -11 -4 -25 4 -15 2 -25 -5
-25 -6 0 -13 11 -17 25 -3 14 -10 25 -16 25 -8 0 -5 -18 9 -57 8 -20 -7 -15
-27 10 -11 13 -17 30 -13 41 4 14 1 18 -10 13 -14 -5 -34 20 -23 30 3 3 38 10
69 12 5 1 6 9 2 20 -3 10 -1 29 4 42 l9 24 12 -27 c15 -32 35 -38 25 -8 -8 24
8 26 30 4 18 -18 17 -18 34 14 13 25 42 23 71 -4z m-27 -183 c38 -9 82 -39 72
-49 -3 -3 -14 3 -25 13 -25 23 -125 32 -169 17 -17 -6 -31 -7 -31 -2 0 24 88
36 153 21z m-70 -173 c5 -125 4 -144 -10 -153 -9 -5 -25 -18 -35 -27 -10 -10
-32 -18 -50 -18 -39 0 -208 68 -215 87 -12 31 71 87 89 61 6 -10 10 -7 14 10
5 16 11 21 25 17 13 -5 19 -1 19 10 0 11 5 15 14 12 8 -3 16 2 19 14 9 34 29
22 22 -13 -4 -18 -8 -33 -9 -33 0 -1 -20 -13 -43 -28 -24 -15 -52 -27 -63 -27
-11 0 -20 -4 -20 -10 0 -5 6 -10 14 -10 8 0 17 -6 19 -12 4 -9 12 -5 26 12 11
14 21 19 21 13 0 -23 16 -14 27 15 10 25 11 24 13 -23 1 -27 4 -42 7 -32 4 14
8 16 18 7 12 -10 13 -4 8 39 -6 55 13 198 29 219 6 6 20 12 33 12 21 0 22 -4
28 -142z m110 122 c25 -20 29 -41 40 -195 2 -29 18 -55 33 -55 3 0 4 19 1 43
-5 38 -4 40 9 23 8 -11 14 -23 14 -28 0 -4 5 -8 11 -8 6 0 9 7 5 15 -8 21 4
19 31 -7 19 -18 26 -20 33 -9 5 8 17 12 30 8 14 -3 20 -1 17 6 -2 7 -21 14
-43 17 -21 3 -60 16 -86 29 -41 20 -48 27 -48 52 0 18 4 28 10 24 6 -3 10 -13
10 -21 0 -17 16 -19 23 -1 4 7 8 3 12 -10 7 -23 25 -32 25 -13 0 19 21 10 30
-12 5 -13 9 -17 9 -9 2 29 111 -13 111 -43 0 -32 -39 -59 -134 -92 -86 -29
-101 -32 -110 -19 -6 9 -33 21 -61 28 -60 15 -62 20 -64 185 l-1 112 34 0 c18
0 45 -9 59 -20z m-29 -296 c38 -7 49 -24 16 -24 -13 0 -20 -7 -20 -20 0 -15
-7 -20 -29 -20 -20 0 -30 6 -34 20 -3 11 -12 20 -21 20 -9 0 -16 4 -16 8 0 12
42 32 57 27 6 -2 28 -7 47 -11z m7 -101 c41 -51 70 -163 42 -163 -7 0 -13 -4
-13 -10 0 -5 -11 -12 -25 -16 -14 -3 -25 -12 -25 -20 0 -8 -4 -14 -10 -14 -5
0 -10 7 -10 16 0 10 -6 14 -14 11 -10 -4 -16 2 -18 16 -2 12 -9 21 -15 20 -29
-6 -26 91 3 150 17 32 63 37 85 10z"/>
<path d="M1714 2315 c-11 -46 17 -78 31 -35 7 23 -2 60 -15 60 -6 0 -12 -11
-16 -25z"/>
<path d="M754 2316 c-8 -21 25 -74 36 -56 10 16 2 46 -16 61 -11 9 -15 8 -20
-5z"/>
<path d="M862 2318 c-7 -7 -12 -25 -12 -42 0 -28 0 -29 20 -11 11 10 20 29 20
42 0 25 -10 29 -28 11z"/>
<path d="M1170 2323 c0 -5 7 -17 15 -27 13 -17 13 -22 -2 -38 -21 -24 -9 -36
16 -14 16 15 19 15 31 1 21 -25 33 -17 15 11 -16 24 -16 27 1 45 23 26 9 37
-17 13 -19 -17 -21 -18 -30 -1 -10 17 -29 24 -29 10z"/>
<path d="M1290 2280 c0 -27 5 -50 10 -50 6 0 10 23 10 50 0 28 -4 50 -10 50
-5 0 -10 -22 -10 -50z"/>
<path d="M1350 2280 c0 -27 5 -50 10 -50 6 0 10 23 10 50 0 28 -4 50 -10 50
-5 0 -10 -22 -10 -50z"/>
<path d="M1570 2312 c0 -16 32 -52 46 -52 19 0 18 25 -2 44 -16 17 -44 22 -44
8z"/>
<path d="M1070 2297 c0 -17 29 -57 41 -57 16 0 10 36 -9 53 -22 20 -32 21 -32
4z"/>
<path d="M1521 2292 c-7 -13 -11 -35 -9 -50 l3 -27 19 28 c14 21 16 33 9 50
l-10 22 -12 -23z"/>
<path d="M934 2265 c-9 -14 -13 -32 -9 -42 6 -16 8 -16 26 6 20 25 26 61 9 61
-5 0 -17 -11 -26 -25z"/>
<path d="M1420 2274 c0 -21 18 -54 30 -54 14 0 12 44 -2 58 -17 17 -28 15 -28
-4z"/>
<path d="M1791 2254 c-25 -31 -26 -44 -7 -44 16 0 46 37 46 57 0 21 -17 15
-39 -13z"/>
<path d="M1004 2245 c-11 -46 17 -78 31 -35 7 23 -2 60 -15 60 -6 0 -12 -11
-16 -25z"/>
<path d="M712 2013 c3 -42 28 -59 28 -20 0 32 -9 57 -22 57 -5 0 -8 -17 -6
-37z"/>
<path d="M1738 2026 c-6 -14 -8 -32 -4 -41 10 -26 36 1 36 36 0 35 -16 38 -32
5z"/>
<path d="M1831 2014 c-25 -31 -26 -44 -7 -44 16 0 46 37 46 57 0 21 -17 15
-39 -13z"/>
<path d="M1121 1994 c-34 -43 -25 -58 17 -28 22 15 31 54 13 54 -5 0 -19 -12
-30 -26z"/>
<path d="M846 1991 c-10 -11 -16 -28 -14 -38 3 -16 7 -15 31 9 15 15 27 32 27
38 0 17 -26 11 -44 -9z"/>
<path d="M1202 1980 c-13 -22 -16 -60 -4 -60 17 0 32 25 32 52 0 33 -10 36
-28 8z"/>
<path d="M1637 1994 c-11 -11 -8 -62 4 -70 6 -3 15 0 20 7 14 22 -8 78 -24 63z"/>
<path d="M936 1958 c-18 -25 -21 -58 -7 -58 14 0 41 41 41 62 0 25 -16 23 -34
-4z"/>
<path d="M1522 1968 c-15 -15 -16 -68 -2 -68 17 0 33 46 23 64 -7 13 -12 13
-21 4z"/>
<path d="M879 1763 c-15 -14 -15 -17 2 -34 18 -18 20 -18 37 -1 16 16 16 18 0
35 -21 20 -18 20 -39 0z"/>
<path d="M1640 1762 c-13 -15 -13 -19 3 -34 16 -17 18 -17 36 1 18 18 18 19 0
35 -22 19 -20 19 -39 -2z"/>
<path d="M1733 1396 l-20 -20 20 -16 c19 -16 21 -16 39 2 17 17 17 19 0 36
-18 18 -19 18 -39 -2z"/>
<path d="M749 1393 c-15 -14 -15 -17 2 -34 19 -19 19 -19 38 0 18 18 18 19 0
35 -22 19 -19 19 -40 -1z"/>
<path d="M909 1182 c-14 -15 -13 -19 4 -38 20 -20 21 -20 39 -2 17 17 17 19
-2 38 -23 23 -21 23 -41 2z"/>
<path d="M1589 1182 c-14 -15 -13 -19 4 -38 20 -20 21 -20 39 -2 17 17 17 19
-2 38 -23 23 -21 23 -41 2z"/>
<path d="M739 951 c-14 -16 -14 -20 1 -38 l16 -20 20 20 c20 20 20 21 2 39
-21 21 -19 21 -39 -1z"/>
<path d="M1747 950 c-16 -19 -16 -21 1 -38 16 -16 18 -16 35 1 17 17 17 18 -1
37 -18 19 -18 19 -35 0z"/>
<path d="M1100 773 c0 -5 9 -18 20 -28 11 -10 20 -14 20 -8 0 5 -9 18 -20 28
-11 10 -20 14 -20 8z"/>
<path d="M1426 764 c-11 -7 -16 -17 -13 -21 4 -4 15 1 24 10 22 21 14 30 -11
11z"/>
<path d="M840 712 c-13 -15 -13 -19 2 -34 17 -17 19 -17 37 -2 18 16 18 17 0
35 -22 22 -20 22 -39 1z"/>
<path d="M1630 712 c-13 -15 -13 -19 2 -34 17 -17 19 -17 37 -2 18 16 18 17 0
35 -22 22 -20 22 -39 1z"/>
<path d="M1066 711 c-3 -4 6 -13 19 -19 15 -7 25 -8 25 -2 0 13 -38 32 -44 21z"/>
<path d="M1450 710 c-8 -5 -12 -11 -9 -14 7 -8 49 5 49 15 0 12 -21 11 -40 -1z"/>
<path d="M1475 650 c-18 -8 -17 -9 8 -9 15 -1 27 4 27 9 0 12 -8 12 -35 0z"/>
<path d="M1050 640 c0 -5 11 -10 25 -10 14 0 25 5 25 10 0 6 -11 10 -25 10
-14 0 -25 -4 -25 -10z"/>
<path d="M1460 590 c0 -8 25 -20 41 -20 20 0 7 18 -16 22 -14 3 -25 2 -25 -2z"/>
<path d="M1060 580 c-12 -8 -9 -10 13 -10 15 0 27 5 27 10 0 13 -20 13 -40 0z"/>
<path d="M748 528 c-17 -17 -17 -19 0 -36 18 -18 20 -18 39 -2 l21 16 -22 20
c-20 19 -22 20 -38 2z"/>
<path d="M1738 528 c-17 -17 -17 -19 2 -38 19 -19 21 -19 38 -2 18 18 18 19
-2 39 -20 18 -22 19 -38 1z"/>
<path d="M1094 526 c-10 -8 -16 -17 -13 -20 3 -3 14 1 25 8 10 8 16 17 13 20
-3 3 -14 -1 -25 -8z"/>
<path d="M1440 531 c0 -11 31 -24 39 -16 3 3 -1 10 -9 15 -19 12 -30 12 -30 1z"/>
<path d="M1132 478 c-14 -14 -16 -28 -2 -28 5 0 14 9 20 20 12 22 1 27 -18 8z"/>
<path d="M1415 470 c10 -11 20 -18 23 -15 7 6 -18 35 -31 35 -5 0 -2 -9 8 -20z"/>
<path d="M1180 441 c-12 -24 -13 -31 -2 -31 5 0 14 11 20 25 14 29 -2 34 -18
6z"/>
<path d="M1360 453 c0 -19 11 -43 21 -43 13 0 11 14 -6 36 -8 10 -15 14 -15 7z"/>
<path d="M1240 414 c0 -14 4 -23 10 -19 6 3 10 15 10 26 0 10 -4 19 -10 19 -5
0 -10 -12 -10 -26z"/>
<path d="M1300 428 c0 -7 5 -20 10 -28 8 -12 10 -9 10 13 0 15 -4 27 -10 27
-5 0 -10 -6 -10 -12z"/>
<path d="M1300 1629 c0 -11 5 -17 10 -14 6 3 10 13 10 21 0 8 -4 14 -10 14 -5
0 -10 -9 -10 -21z"/>
<path d="M1135 1309 c-4 -6 -5 -13 -2 -16 7 -7 27 6 27 18 0 12 -17 12 -25 -2z"/>
<path d="M1176 1131 c-10 -16 -11 -210 -1 -220 7 -7 11 30 12 110 2 115 0 129
-11 110z"/>
<path d="M1270 1118 c1 -60 27 -203 34 -187 4 9 2 45 -3 80 -6 35 -11 81 -11
102 0 20 -4 37 -10 37 -5 0 -10 -15 -10 -32z"/>
<path d="M1240 741 c0 -4 13 -8 30 -7 39 1 39 16 0 16 -16 0 -30 -4 -30 -9z"/>
<path d="M1265 710 c4 -6 11 -8 16 -5 14 9 11 15 -7 15 -8 0 -12 -5 -9 -10z"/>
<path d="M1292 693 c-19 -8 -4 -22 18 -16 11 3 17 9 14 14 -6 10 -12 10 -32 2z"/>
<path d="M1225 680 c-3 -5 1 -10 9 -10 8 0 18 5 21 10 3 6 -1 10 -9 10 -8 0
-18 -4 -21 -10z"/>
<path d="M1315 644 c-14 -11 -32 -14 -57 -10 -43 7 -46 4 -19 -23 14 -14 21
-16 25 -8 2 7 5 4 5 -5 1 -23 21 -24 21 -1 0 15 2 14 15 -3 14 -19 14 -18 15
3 0 14 5 21 13 18 7 -3 13 4 13 20 2 29 -3 30 -31 9z"/>
<path d="M697 294 c-10 -11 -9 -92 2 -99 5 -3 11 5 13 17 5 34 36 35 50 1 l12
-28 4 27 c2 15 1 42 -1 60 -4 30 -5 31 -12 11 -4 -13 -14 -23 -21 -23 -8 0
-17 0 -21 -1 -5 0 -10 9 -13 21 -3 12 -8 18 -13 14z"/>
<path d="M832 255 c-25 -52 -29 -76 -10 -57 7 7 24 12 38 12 14 0 31 -5 38
-12 9 -9 12 -9 12 0 0 15 -42 102 -50 102 -3 0 -16 -20 -28 -45z m34 -22 c-10
-10 -19 5 -10 18 6 11 8 11 12 0 2 -7 1 -15 -2 -18z"/>
<path d="M940 244 c0 -34 4 -53 10 -49 6 3 10 18 10 33 l1 27 28 -33 c15 -17
31 -29 34 -25 11 10 8 103 -3 103 -5 0 -10 -15 -10 -32 l-1 -33 -29 33 c-16
17 -32 32 -35 32 -3 0 -5 -25 -5 -56z"/>
<path d="M1082 284 c-30 -21 -29 -59 4 -81 19 -12 30 -14 42 -7 20 13 38 41
31 48 -10 10 -44 11 -46 1 -1 -5 5 -9 13 -7 20 4 18 -14 -3 -22 -9 -4 -23 0
-32 9 -23 23 -2 51 35 47 24 -3 26 -1 15 12 -17 20 -31 20 -59 0z"/>
<path d="M1194 286 c-3 -8 -4 -31 -2 -52 3 -38 4 -39 46 -42 49 -4 58 15 10
20 -35 3 -41 23 -8 23 29 1 25 19 -5 23 -34 4 -22 22 16 22 16 0 29 5 29 10 0
16 -80 12 -86 -4z"/>
<path d="M1314 286 c-3 -8 -4 -31 -2 -52 2 -32 7 -40 26 -42 49 -7 81 57 46
92 -19 20 -63 21 -70 2z m50 -12 c21 -8 21 -50 0 -58 -22 -8 -34 1 -34 28 0
33 8 40 34 30z"/>
<path d="M1507 293 c-11 -10 -8 -91 3 -98 6 -4 10 9 10 31 0 32 2 35 16 23 12
-10 20 -10 35 -1 17 11 19 9 19 -24 0 -21 4 -33 10 -29 12 8 13 92 1 99 -4 3
-16 -3 -26 -14 -18 -20 -18 -20 -40 0 -12 11 -25 17 -28 13z"/>
<path d="M1655 251 c-14 -28 -21 -53 -16 -56 5 -3 12 -1 16 5 8 13 65 13 65
-1 0 -5 4 -7 10 -4 9 6 -34 105 -45 105 -3 0 -16 -22 -30 -49z m40 0 c3 -5 1
-12 -5 -16 -5 -3 -10 1 -10 9 0 18 6 21 15 7z"/>
<path d="M1767 294 c-11 -11 -9 -92 3 -99 6 -4 10 7 10 24 0 17 2 31 5 31 3 0
19 -15 35 -32 l29 -33 1 58 c0 40 -3 56 -11 51 -6 -3 -9 -17 -6 -30 6 -32 -1
-30 -32 7 -14 17 -29 27 -34 23z"/>
</g>
</svg>
